inDegrees=no
num_controls=7
num_derivatives=13
num_iterations=106
num_multipliers=7
num_parameters=0
num_slacks=7
num_states=26
objective=0.497141
objective_accelerations=0.032342
objective_balance=0.003243
objective_effort=0.035056
objective_height=0.421009
objective_ligament=0.005490
solver_duration=1225.719066
status=Solve_Succeeded
success=true
DataType=double
version=3
OpenSimVersion=4.5
endheader
time	/jointset/ground_pelvis/pelvis_tilt/value	/jointset/ground_pelvis/pelvis_tx/value	/jointset/ground_pelvis/pelvis_ty/value	/jointset/hip_r/hip_flexion_r/value	/jointset/hip_r/hip_adduction_r/value	/jointset/hip_r/hip_rotation_r/value	/jointset/back/lumbar_extension/value	/jointset/patellofemoral_r/patellar_flexion_r/value	/jointset/knee_r/knee_flexion_r/value	/jointset/knee_r/knee_adduction_r/value	/jointset/knee_r/knee_rotation_r/value	/jointset/ankle_r/ankle_angle_r/value	/jointset/subtalar_r/subtalar_angle_r/value	/jointset/ground_pelvis/pelvis_tilt/speed	/jointset/ground_pelvis/pelvis_tx/speed	/jointset/ground_pelvis/pelvis_ty/speed	/jointset/hip_r/hip_flexion_r/speed	/jointset/hip_r/hip_adduction_r/speed	/jointset/hip_r/hip_rotation_r/speed	/jointset/back/lumbar_extension/speed	/jointset/patellofemoral_r/patellar_flexion_r/speed	/jointset/knee_r/knee_flexion_r/speed	/jointset/knee_r/knee_adduction_r/speed	/jointset/knee_r/knee_rotation_r/speed	/jointset/ankle_r/ankle_angle_r/speed	/jointset/subtalar_r/subtalar_angle_r/speed	/forceset/tau_hip_flexion_r	/forceset/tau_hip_adduction_r	/forceset/tau_hip_rotation_r	/forceset/tau_knee_flexion_r	/forceset/tau_ankle_angle_r	/forceset/tau_subtalar_angle_r	/forceset/tau_lumbar_extension	lambda_cid13_p0	lambda_cid14_p0	lambda_cid14_p1	lambda_cid14_p2	lambda_cid14_p3	lambda_cid14_p4	lambda_cid14_p5	/jointset/ground_pelvis/pelvis_tilt/accel	/jointset/ground_pelvis/pelvis_tx/accel	/jointset/ground_pelvis/pelvis_ty/accel	/jointset/hip_r/hip_flexion_r/accel	/jointset/hip_r/hip_adduction_r/accel	/jointset/hip_r/hip_rotation_r/accel	/jointset/back/lumbar_extension/accel	/jointset/patellofemoral_r/patellar_flexion_r/accel	/jointset/knee_r/knee_flexion_r/accel	/jointset/knee_r/knee_adduction_r/accel	/jointset/knee_r/knee_rotation_r/accel	/jointset/ankle_r/ankle_angle_r/accel	/jointset/subtalar_r/subtalar_angle_r/accel	gamma_cid13_p0	gamma_cid14_p0	gamma_cid14_p1	gamma_cid14_p2	gamma_cid14_p3	gamma_cid14_p4	gamma_cid14_p5
0.5	-0.09922558636187598	0.05228757568078068	0.8635590270735705	0.6934243212933853	-0.2301635674555155	-0.1332993817646433	-0.3158617002410662	0.6871840964988737	0.6871840964988216	0.04160128544293377	0.1744874138734976	0.2638767298761995	0.05666348179744193	-0.2677975056301247	-0.08950861273736589	-0.3270652320515662	1.41197825048355	-0.008098246573898618	0.2562124287243706	-0.6046663824025913	1.666913714450295	1.666913714450186	-0.2795511721372004	1.479443042310801e-05	0.6123057493182189	0.1641182574946729	-0.07487666539931291	-0.01869778435196717	0.008270483500772925	-0.3392225724672396	0.06224696355508389	-0.01012333909439357	0.1346834476927375	-32.05894625756103	-22.19678753244586	-4.345113216225876	-3.345387528392093	3.456914080310288	-670.4069718705803	59.96012731098983	0.05703735430165206	0.2766818508405612	-0.346120734777636	-0.8566508312045514	-0.0510932626627868	-0.5544135693660337	1.294623496542891	-1.148540727637589	-1.148540727637586	0.3878519144865664	-0.003754493391314138	-0.4789902645338282	-0.06359385402718921	-1.115842712487648e-07	-1.584776384412879e-07	5.525873179805748e-07	-1.25045271047473e-06	3.867767426710634e-08	-2.145880797821269e-07	8.625392307283337e-07
0.51	-0.1019002457657903	0.05140645868050155	0.8602717993433356	0.7074990038931228	-0.2302478554954092	-0.1307639717763047	-0.3218428666582616	0.7037933006311752	0.7037933006310492	0.03882748493697369	0.1744873952929338	0.2699747345889301	0.05830011594253572	-0.2670960136473454	-0.08670320288740628	-0.3303059700756228	1.402759812688582	-0.008761656199199958	0.2508720741568684	-0.5914829452901587	1.654692115820993	1.654692115820974	-0.2751792767442451	-1.980430655258524e-05	0.6072131876204361	0.1631776274718726	-0.08024043175418612	-0.01688405870042976	0.008926485571027354	-0.3419460836677832	0.05790868779066467	-0.009513400127325161	0.1396078781441938	-31.11080731747676	-23.72908465889727	-4.464153634423218	-3.194316976864886	4.036618060937306	-673.604918561936	59.74369769751112	0.08244652762694621	0.2842169397022046	-0.3019418910131388	-0.9842259911333618	-0.07447288227128843	-0.523656178695857	1.342797180487698	-1.294197323902471	-1.294197323889039	0.4663147173451465	-0.003724376945272264	-0.5366996551402595	-0.1140046611945485	-9.468034801115113e-08	-1.17903188013353e-07	5.972388567840344e-07	-9.439690596698094e-07	8.838871910616864e-09	-1.689638088670268e-07	7.553001861662102e-07
0.52	-0.1045667419683985	0.05055374505624796	0.8569543859219015	0.7214755449674179	-0.2303388792455126	-0.1282819272892956	-0.327689680031953	0.720273243198518	0.7202732431983164	0.03609829465807474	0.1744869483623871	0.2760193515781351	0.05992640237044401	-0.2661648653701456	-0.08382793753225533	-0.3331023702914236	1.392349945393999	-0.009445388616803864	0.245539328459225	-0.5777957737019678	1.641061401458652	1.641061401458722	-0.270629126725486	-7.087556731136276e-05	0.6016282046130639	0.1620487140575489	-0.08560419810905698	-0.01507033304889056	0.009582487641305634	-0.3446695948683284	0.05357041202624287	-0.008903461160262312	0.1445323085956529	-30.15412486936224	-25.26584457555941	-4.581291625642161	-3.046616054972549	4.602842535343068	-676.8785068948226	59.59137801812157	0.1029686131856846	0.2906529518789027	-0.2572531731264415	-1.094936731127359	-0.05515782112329947	-0.552891795394249	1.395370391694561	-1.430363874245433	-1.430363874245433	0.4235028396473751	-0.007048998147965396	-0.5774745264516387	-0.1012505323318457	-6.842383766191588e-08	-3.713341450496445e-08	7.704713381257473e-07	-3.484229966406845e-07	-6.14208293450356e-08	-7.45094208697849e-08	6.050724283425317e-07
0.53	-0.1072229094995713	0.04973006358748809	0.8536112514369465	0.7353423689367885	-0.23043643117112	-0.1258545863854252	-0.3333972381224191	0.7366099927920227	0.7366099927918655	0.03341383702680041	0.1744866116987606	0.2820057889470485	0.06154105059064792	-0.265032678310749	-0.08090236616819797	-0.3354465540733428	1.380823323690282	-0.010075729301445	0.2399823005749905	-0.5636558655354442	1.626056543444902	1.626056543444971	-0.2661875402401614	-2.687140550973843e-05	0.5955721388790233	0.1608345370919524	-0.09071062930344397	-0.01340236652256448	0.01026196643141751	-0.3476691629888686	0.04951555228936923	-0.0084218517059657	0.1492285798584033	-29.19154027451661	-26.72395836313161	-4.749485226830301	-2.880389579715982	5.180231568744992	-680.1928894641948	59.40243417526104	0.1237376665058103	0.2943880715960508	-0.2113100661538906	-1.210253293905224	-0.06851797048956677	-0.5491521236263708	1.432297857456268	-1.570331908268763	-1.57033190826896	0.465834719591057	0.005571150971826077	-0.6327646589100537	-0.1383290222722205	-4.237763602147974e-08	4.670881554831104e-08	9.782480141294005e-07	2.668821002485812e-07	-1.37575263106523e-07	2.051091762381461e-08	4.857206381025707e-07
0.54	-0.1098666763773107	0.0489358136009544	0.8502470132970862	0.7490881810083418	-0.2305405956592525	-0.1234812245281277	-0.338961597765554	0.7527897367767277	0.7527897367766098	0.0307760648936927	0.1744858042822812	0.2879290472462155	0.06314219149247614	-0.2636847346837998	-0.0779416410870179	-0.3373231012724475	1.368147565830108	-0.01076790112029184	0.2347435191432233	-0.5491560842359314	1.609660279697993	1.60966027969806	-0.2612920270901963	-0.0001650261386034693	0.5889923906637926	0.1593472503824102	-0.09581706049781323	-0.01173439999621548	0.01094144522142986	-0.3506687311094021	0.04546069255250614	-0.007940242251622737	0.1539248511211643	-28.22376102640895	-28.18818565604673	-4.918040987313177	-2.714913840206833	5.757004040126492	-683.6017823432607	59.23962656272992	0.1461199266961417	0.2976836953035063	-0.1637258565635604	-1.324763962419054	-0.06752404796443723	-0.4892425049007758	1.467345018292407	-1.708645020877376	-1.708645020877372	0.5142881725754899	-0.04348077712705863	-0.6822110226895712	-0.1558724811209831	-1.656411635673624e-08	1.339503592257168e-07	1.224243799120733e-06	9.040482558767265e-07	-2.202515285765939e-07	1.161574141133842e-07	4.005294928488506e-07
